<?xml version="1.0" encoding="UTF-8" standalone="no"?>
<!DOCTYPE svg PUBLIC "-//W3C//DTD SVG 1.1//EN" "http://www.w3.org/Graphics/SVG/1.1/DTD/svg11.dtd">
<svg width="100%" height="100%" viewBox="0 0 774 778" version="1.1" xmlns="http://www.w3.org/2000/svg"
     xml:space="preserve"
     style="fill-rule:evenodd;clip-rule:evenodd;stroke-linejoin:round;stroke-miterlimit:2;">
    <g transform="matrix(1,0,0,1,-207.365,-11.3624)">
        <g transform="matrix(1,0,0,1,-51.6173,-53.7629)">
            <path d="M308.983,551.892C308.294,551.492 745.592,115.125 744.737,115.125" style="fill:white;"/>
            <path d="M726.22,98.378L726.21,98.354C726.21,98.354 724.434,100.183 722.647,101.995C716.088,108.643 702.319,122.472 683.579,141.254C598.595,226.423 411.635,413.172 330.324,494.775C313.296,511.864 300.884,524.36 294.979,530.378C293.013,532.382 291.694,533.747 291.074,534.412C290.205,535.342 289.674,535.996 289.427,536.308C286.854,539.551 285.954,542.089 285.552,543.172C279.066,560.61 289.469,569.474 296.44,573.518C306.939,579.608 320.051,577.191 327.76,568.391L330.67,565.395C336.529,559.424 348.846,547.025 365.743,530.067C447.048,448.469 633.995,261.734 718.973,176.57C737.81,157.692 751.649,143.792 758.241,137.11C760.35,134.972 761.77,133.517 762.442,132.81C763.153,132.063 763.599,131.546 763.809,131.298C765.709,129.046 766.567,127.342 766.949,126.603C771.95,116.92 769.398,109.631 768.099,106.223C764.547,96.904 757.645,90.125 744.737,90.125C737.388,90.125 730.775,93.303 726.22,98.378Z"
                  style="fill:rgb(27,38,44);"/>
        </g>
        <g transform="matrix(1,0,0,1,-51.6173,-53.7629)">
            <path d="M982.738,356.069C982.647,356.016 744.829,116.19 744.738,116.138" style="fill:white;"/>
            <path d="M995.192,334.392L757.192,94.461C745.228,87.587 729.934,91.72 723.061,103.684C716.187,115.647 720.32,130.941 732.284,137.815L970.284,377.746C982.248,384.62 997.542,380.487 1004.42,368.523C1011.29,356.559 1007.16,341.266 995.192,334.392Z"
                  style="fill:rgb(27,38,44);"/>
        </g>
        <g transform="matrix(1,0,0,1,-51.6173,-53.7629)">
            <path d="M769.282,576.555C768.615,575.912 527.862,334.51 527.114,333.762" style="fill:white;"/>
            <path d="M786.632,558.555L544.791,316.084C535.035,306.328 519.192,306.328 509.436,316.084C499.679,325.841 499.679,341.683 509.436,351.44L751.932,594.554C761.866,604.13 777.706,603.839 787.281,593.905C796.857,583.97 796.566,568.131 786.632,558.555Z"
                  style="fill:rgb(27,38,44);"/>
        </g>
        <g transform="matrix(1,0,0,1,-51.6173,-53.7629)">
            <path d="M550.666,792.4C550.775,791.72 308.983,551.568 308.983,550.879" style="fill:white;"/>
            <path d="M532.066,809.085C535.755,813.217 540.837,816.148 546.727,817.088C560.352,819.262 573.18,809.966 575.354,796.34C575.402,796.042 577.755,784.249 566.159,772.425C562.5,768.694 554.795,760.956 544.298,750.457C497.19,703.336 393.43,600.139 348.316,555.03C338.98,545.695 332.175,538.868 328.941,535.577C328.219,534.843 327.504,534.102 327.504,534.102L327.528,534.164C322.974,529.071 316.348,525.879 308.983,525.879C295.185,525.879 283.983,537.081 283.983,550.879C283.983,551.149 283.406,560.576 293.277,570.621C296.563,573.965 303.477,580.903 312.963,590.388C358.075,635.495 461.831,738.688 508.938,785.807C519.271,796.144 526.858,803.76 530.46,807.433C531.266,808.256 532.066,809.087 532.066,809.087L532.066,809.085Z"
                  style="fill:rgb(27,38,44);"/>
        </g>
    </g>
</svg>
